<svg version="1.0" xmlns="http://www.w3.org/2000/svg" width="100%" height="100%" viewBox="0 0 459 565">
  <g transform="translate(0,565) scale(0.1,-0.1)" fill="#E74610" stroke="none">
    <path d="M1895 5628 c-104 -37 -120 -83 -120 -333 0 -160 3 -198 18 -237 20 -51 63 -86 121 -97 l31 -7 3 -102 3 -103 72 8 c40 4 162 8 272 8 110 0 232 -4 272 -8 l72 -8 3 102 3 102 44 13 c54 16 98 57 111 104 5 19 11 125 12 235 3 228 0 241 -81 302 l-43 33 -381 -1 c-242 0 -393 -4 -412 -11z"/>
    <path d="M3489 4980 c-40 -21 -80 -68 -123 -145 -16 -27 -53 -92 -84 -143 -30 -51 -53 -94 -51 -96 2 -2 51 -25 109 -52 148 -68 288 -149 383 -221 45 -34 85 -63 89 -63 8 0 88 133 157 262 62 114 67 158 29 216 -20 29 -66 60 -224 150 -114 64 -209 112 -224 112 -14 -1 -41 -10 -61 -20z"/>
    <path d="M2085 4574 c-640 -69 -1237 -404 -1615 -905 -229 -304 -385 -687 -442 -1084 -19 -134 -16 -474 5 -615 75 -488 288 -917 624 -1255 420 -421 925 -653 1513 -694 320 -23 658 32 960 156 677 277 1186 852 1369 1545 88 334 100 656 35 1006 -79 432 -333 899 -657 1208 -350 335 -777 547 -1247 619 -101 16 -459 28 -545 19z m37 -438 c4 -68 12 -116 23 -140 58 -123 229 -127 292 -7 20 38 23 59 23 148 l0 104 53 -7 c546 -65 1033 -346 1351 -778 98 -132 165 -250 219 -381 71 -174 147 -465 147 -566 l0 -39 -82 0 c-134 0 -190 -24 -235 -98 -38 -62 -25 -139 34 -194 42 -40 74 -48 185 -48 l101 0 -6 -72 c-8 -96 -68 -335 -111 -447 -182 -471 -511 -836 -951 -1055 -207 -103 -419 -166 -647 -191 l-58 -6 0 101 c0 80 -4 109 -20 139 -49 98 -146 127 -238 71 -49 -30 -72 -90 -79 -210 -3 -55 -9 -100 -12 -100 -42 1 -233 35 -313 55 -643 163 -1140 636 -1357 1290 -55 166 -94 348 -85 395 l7 30 94 0 c74 0 102 4 133 20 116 59 139 186 48 265 -47 39 -106 55 -210 55 l-71 0 6 83 c12 171 104 462 204 647 271 503 713 853 1243 984 85 21 241 50 296 55 7 1 13 -36 16 -103z"/>
    <path d="M888 3250 c-124 -38 -172 -155 -101 -248 29 -38 77 -70 258 -172 165 -93 779 -449 951 -551 154 -92 269 -149 302 -149 30 0 61 16 372 195 678 391 1068 619 1100 644 43 34 62 72 62 122 -1 89 -73 162 -158 162 -54 0 -81 -14 -399 -199 -438 -256 -964 -554 -979 -554 -25 0 -225 111 -621 345 -104 62 -228 134 -275 160 -47 26 -162 92 -255 146 -175 101 -210 114 -257 99z"/>
  </g>
</svg>
