<svg viewBox="0 0 40 36" xmlns="http://www.w3.org/2000/svg"><path fill-rule="evenodd" clip-rule="evenodd" d="M26.368 6.881a1.226 1.226 0 0 0-.387-.27 1.21 1.21 0 0 0-.477-.091c-.178 0-.34.032-.476.09a1.484 1.484 0 0 0-.387.255 1.514 1.514 0 0 0-.251.394 1.264 1.264 0 0 0-.09.484c0 .181.032.346.09.484.057.139.146.256.267.378.12.122.25.229.387.271.136.059.282.09.46.09.178 0 .34-.031.477-.09a.89.89 0 0 0 .34-.213l.047-.058c.12-.107.21-.24.267-.378.047-.138.073-.303.073-.484 0-.18-.03-.33-.073-.468a1.96 1.96 0 0 0-.267-.41v.016Zm1.471-1.505a3.248 3.248 0 0 0-2.33-.979 3.25 3.25 0 0 0-2.329.979 3.354 3.354 0 0 0-.963 2.367c0 .936.372 1.766.963 2.367a3.275 3.275 0 0 0 2.33.98c.905 0 1.748-.363 2.33-.964l.015-.016a3.341 3.341 0 0 0 .947-2.367c0-.936-.371-1.766-.963-2.367ZM15.36 6.881a1.226 1.226 0 0 0-.387-.27 1.21 1.21 0 0 0-.476-.091c-.178 0-.34.032-.477.09a1.484 1.484 0 0 0-.387.255 1.514 1.514 0 0 0-.252.394 1.266 1.266 0 0 0-.089.484c0 .181.032.346.09.484.057.139.146.271.266.394v-.016c.12.122.252.229.388.271.136.059.283.09.46.09.179 0 .34-.031.477-.09a.914.914 0 0 0 .356-.229l.031-.047c.12-.107.21-.24.267-.378.047-.138.074-.303.074-.484s-.032-.33-.09-.468a1.113 1.113 0 0 0-.25-.394v.005Zm1.471-1.505a3.248 3.248 0 0 0-2.33-.979 3.25 3.25 0 0 0-2.329.979 3.353 3.353 0 0 0-.963 2.367c0 .936.372 1.766.963 2.367a3.275 3.275 0 0 0 2.33.98c.905 0 1.738-.363 2.33-.964l.015-.016a3.341 3.341 0 0 0 .948-2.367c0-.936-.372-1.766-.964-2.367Zm-1.319 19.012a1.33 1.33 0 0 0-.476-.33 1.454 1.454 0 0 0-.592-.107 1.452 1.452 0 0 0-1.073.437h.016a1.553 1.553 0 0 0-.34.5 1.771 1.771 0 0 0-.105.59c0 .229.047.42.104.59.074.181.194.346.325.5a1.47 1.47 0 0 0 1.073.437c.225 0 .43-.032.592-.107.178-.074.34-.18.476-.33.147-.148.267-.319.325-.5a1.44 1.44 0 0 0 .12-.59c0-.229-.047-.42-.12-.59a1.344 1.344 0 0 0-.325-.5Zm1.853-1.868a4.035 4.035 0 0 0-2.92-1.234 4.032 4.032 0 0 0-2.912 1.234 4.189 4.189 0 0 0-1.204 2.958c0 1.165.461 2.202 1.205 2.958a4.065 4.065 0 0 0 5.832 0 4.189 4.189 0 0 0 1.203-2.958c0-1.165-.46-2.202-1.204-2.958Zm9.276 1.868a1.487 1.487 0 0 0-.492-.33 1.386 1.386 0 0 0-.58-.107c-.226 0-.414.032-.582.107-.178.074-.34.18-.492.33a1.516 1.516 0 0 0-.43 1.09c0 .229.032.42.106.59a1.47 1.47 0 0 0 .816.83c.162.075.356.107.581.107.225 0 .414-.032.581-.107.178-.074.34-.18.492-.33a1.516 1.516 0 0 0 .43-1.09c0-.229-.032-.42-.105-.59a1.572 1.572 0 0 0-.325-.5Zm1.838-1.868a4.002 4.002 0 0 0-2.91-1.234 4.023 4.023 0 0 0-2.911 1.234 4.132 4.132 0 0 0-1.215 2.958 4.15 4.15 0 0 0 1.215 2.958 4.002 4.002 0 0 0 2.91 1.234 4.023 4.023 0 0 0 2.91-1.234 4.132 4.132 0 0 0 1.215-2.958c0-1.165-.46-2.202-1.214-2.958Zm-7.402-7.6a1.414 1.414 0 0 0-.477-.347 1.505 1.505 0 0 0-.591-.106c-.22 0-.414.032-.581.106a1.48 1.48 0 0 0-.477.346h-.015a1.507 1.507 0 0 0-.325.484v.016a1.421 1.421 0 0 0-.105.575c0 .228.032.42.105.6.073.181.194.346.325.485h.015c.147.149.315.271.477.33.162.074.356.122.58.122a1.4 1.4 0 0 0 .582-.122h.016c.162-.059.324-.181.476-.33a1.38 1.38 0 0 0 .325-.484c.073-.181.12-.378.12-.601 0-.224-.047-.42-.12-.59a1.428 1.428 0 0 0-.325-.485h-.005Zm1.853-1.884c-.76-.755-1.78-1.234-2.921-1.234a4.096 4.096 0 0 0-2.91 1.234 4.226 4.226 0 0 0-1.215 2.958c0 1.149.476 2.202 1.214 2.968a4.084 4.084 0 0 0 2.91 1.223 4.128 4.128 0 0 0 2.922-1.223 4.252 4.252 0 0 0 1.204-2.968c0-1.16-.46-2.203-1.204-2.958Zm8.994 1.883a1.414 1.414 0 0 0-.477-.346 1.385 1.385 0 0 0-.58-.106 1.5 1.5 0 0 0-.593.106 1.57 1.57 0 0 0-.476.33v.016a1.38 1.38 0 0 0-.324.484 1.546 1.546 0 0 0 0 1.192c.073.18.178.345.324.484.136.149.299.255.476.33.178.074.372.122.592.122.22 0 .414-.048.581-.122.162-.059.325-.181.476-.33h.016a1.51 1.51 0 0 0 .325-.484c.057-.181.105-.378.105-.601 0-.224-.048-.42-.105-.59a1.774 1.774 0 0 0-.34-.485Zm1.853-1.883a4.093 4.093 0 0 0-2.91-1.234c-1.132 0-2.168.484-2.922 1.234a4.217 4.217 0 0 0-1.204 2.958c0 1.149.46 2.202 1.204 2.968a4.117 4.117 0 0 0 2.921 1.223 4.065 4.065 0 0 0 2.91-1.223 4.252 4.252 0 0 0 1.205-2.968c0-1.16-.461-2.203-1.204-2.958Zm-23.552 1.867a1.673 1.673 0 0 0-.492-.33 1.386 1.386 0 0 0-.581-.106c-.225 0-.414.032-.592.106a1.477 1.477 0 0 0-.476.346 1.38 1.38 0 0 0-.325.484c-.073.165-.12.362-.12.59 0 .23.047.42.12.602.058.165.178.33.325.484.146.149.314.271.476.33.178.074.372.122.592.122.22 0 .413-.048.58-.122.179-.075.341-.181.493-.33h-.016c.147-.15.267-.32.34-.484a1.95 1.95 0 0 0 .105-.601c0-.224-.047-.42-.105-.59a1.774 1.774 0 0 0-.34-.485l.016-.016Zm1.837-1.867a4.093 4.093 0 0 0-2.91-1.234c-1.131 0-2.168.484-2.921 1.234a4.217 4.217 0 0 0-1.204 2.958c0 1.149.46 2.202 1.204 2.968a4.117 4.117 0 0 0 2.92 1.223 4.065 4.065 0 0 0 2.911-1.223 4.252 4.252 0 0 0 1.204-2.968c0-1.16-.46-2.203-1.204-2.958Zm-9.967 2.633c.016 7.059 3.963 13.645 10.37 16.554 4.675 2.112 10.37 2.261 15.02.016 6.396-3.058 10.448-9.5 10.448-16.66 0-2.761-.816-5.687-2.005-7.708-1.052-1.809-2.654-4.373-4.497-5.187-.638-.287-1.884-.42-3.277-.484-5.072-.197-10.475.016-15.579.016-2.047 0-3.59-.058-4.941.979-3.361 2.644-5.555 8.192-5.539 12.474Zm1.084 11.07A21.07 21.07 0 0 1 0 15.669c0-2.516.639-5.383 1.796-7.963C2.879 5.248 4.45 3.019 6.35 1.525 8.193.094 9.941.094 12.229.094h.34c1.738 0 3.534-.016 5.34-.048 3.455-.048 6.957-.09 10.312.048.76.032 1.482.074 2.12.165.76.106 1.424.255 1.932.484 1.262.558 2.377 1.643 3.324 2.851.859 1.085 1.56 2.245 2.12 3.197.712 1.191 1.294 2.638 1.691 4.192.372 1.462.592 3.048.592 4.601 0 3.995-1.115 7.782-3.13 10.99a20.61 20.61 0 0 1-8.502 7.601C25.803 35.41 22.95 36 20.102 36c-2.921-.016-5.847-.633-8.486-1.84-3.56-1.596-6.439-4.224-8.444-7.421h.006Z"/></svg>